<?xml version="1.0" encoding="utf-8"?>
<!-- Generator: Adobe Illustrator 16.0.4, SVG Export Plug-In . SVG Version: 6.00 Build 0)  -->
<!DOCTYPE svg PUBLIC "-//W3C//DTD SVG 1.1//EN" "http://www.w3.org/Graphics/SVG/1.1/DTD/svg11.dtd">
<svg version="1.1" id="Layer_1" xmlns="http://www.w3.org/2000/svg" xmlns:xlink="http://www.w3.org/1999/xlink" x="0px" y="0px"
	 width="390px" height="400px" viewBox="5 0 390 400" enable-background="new 5 0 390 400" xml:space="preserve">
<g>
	<path d="M21.812,113.75c0.635-1.796,1.853-2.378,3.648-1.742l10.062,3.561c1.708,0.605,2.378,1.853,1.742,3.65l-8.012,22.64
		c-0.604,1.708-0.055,3.015,1.742,3.65l2.875,1.017c1.707,0.604,3.044-0.035,3.648-1.741l5.247-14.824
		c0.635-1.796,1.852-2.378,3.649-1.74l10.062,3.559c1.707,0.605,2.379,1.853,1.741,3.65l-5.246,14.823
		c-0.604,1.708-0.055,3.013,1.741,3.65l18.328,6.484c1.708,0.604,2.377,1.853,1.741,3.649l-3.75,10.602
		c-0.606,1.708-1.945,2.346-3.652,1.742l-57.5-20.345c-1.796-0.637-2.345-1.942-1.741-3.65L21.812,113.75z"/>
	<path d="M103.275,80.98c4.689,4.191,16.381,16.426,1.333,33.27c-15.048,16.845-28.517,6.601-33.21,2.41l-17.769-15.873
		c-4.692-4.192-16.383-16.425-1.335-33.271c15.05-16.845,28.52-6.601,33.211-2.409L103.275,80.98z M78.349,80.696
		c-5.471-4.888-9.13-7.518-13.828-2.258c-4.699,5.259-1.676,8.6,3.796,13.488l10.236,9.144c5.474,4.888,9.129,7.517,13.829,2.259
		c4.699-5.26,1.676-8.6-3.797-13.489L78.349,80.696z"/>
	<path d="M108.922,24.966c1.729-0.803,2.994-0.34,3.797,1.389l15.737,33.884c3.092,6.655,5.411,10.516,11.807,7.545
		s4.941-7.234,1.852-13.89l-15.739-33.883c-0.802-1.729-0.252-3.035,1.389-3.798l9.68-4.496c1.731-0.804,2.995-0.34,3.799,1.388
		l17.864,38.465c2.65,5.705,8.546,21.566-11.939,31.082c-20.485,9.516-28.803-5.222-31.452-10.927L97.85,33.261
		c-0.803-1.729-0.252-3.035,1.389-3.798L108.922,24.966z"/>
	<path d="M191.629,2.225c1.62-0.017,2.674,0.639,3.357,2.157l13.296,31.594c0.391,0.854,1.151,0.655,1.141-0.298L209.096,4.9
		c-0.02-1.907,1.019-2.87,2.829-2.89l10.672-0.113c1.907-0.021,2.869,0.923,2.89,2.828l0.647,60.987
		c0.019,1.811-0.925,2.868-2.829,2.888l-14.007,0.149c-1.621,0.016-2.676-0.639-3.358-2.157l-13.297-31.594
		c-0.389-0.854-1.152-0.655-1.141,0.298l0.327,30.78c0.02,1.81-0.923,2.868-2.828,2.888l-10.674,0.114
		c-1.81,0.019-2.87-1.018-2.888-2.829l-0.647-60.986c-0.02-1.906,1.018-2.87,2.829-2.889L191.629,2.225z"/>
	<path d="M283.012,19.214c16.397,7.221,18.886,16.23,12.587,30.535l-8.412,19.101c-6.299,14.304-14.664,18.639-31.061,11.419
		l-19.452-8.565c-1.655-0.729-2.193-2.112-1.463-3.769l24.544-55.733c0.767-1.746,2.023-2.233,3.807-1.552L283.012,19.214z
		 M262.994,65.382c4.186,1.842,6.587,2.066,8.891-3.167c0.038-0.086,8.412-19.1,8.45-19.188c2.381-5.408,0.518-6.854-3.668-8.696
		l-4.71-2.074c-1.657-0.73-3-0.28-3.77,1.464L256.82,59.537c-0.728,1.658-0.193,3.039,1.465,3.768L262.994,65.382z"/>
	<path d="M361.649,80.071c1.307,1.386,1.269,2.733-0.119,4.04l-7.767,7.321c-1.317,1.241-2.734,1.268-4.042-0.121l-15.819-16.781
		c-1.241-1.319-2.653-1.427-4.041-0.12l-2.218,2.092c-1.318,1.242-1.362,2.724-0.12,4.041l10.132,10.749
		c1.306,1.386,1.268,2.733-0.121,4.041l-7.767,7.321c-1.317,1.243-2.734,1.268-4.041-0.121l-10.133-10.748
		c-1.24-1.318-2.651-1.427-4.04-0.121l-2.219,2.091c-1.317,1.243-1.362,2.724-0.121,4.042l15.819,16.781
		c1.306,1.387,1.269,2.733-0.122,4.042l-7.765,7.319c-1.386,1.308-2.734,1.268-4.042-0.12l-27.453-29.125
		c-1.241-1.317-1.195-2.8,0.121-4.041l44.382-41.833c1.386-1.306,2.8-1.198,4.042,0.12L361.649,80.071z"/>
	<path d="M340.891,180.333c-1.886,2.088-4.911,1.547-5.902-1.234l-3.647-10.233c-0.32-0.898-0.161-1.866,0.521-2.512l14.715-15.765
		c0.205-0.276,0.29-0.609,0.192-0.879l-1.278-3.59c-0.576-1.617-2.159-2.368-3.774-1.792l-14.183,5.055
		c-1.616,0.575-3.199-0.176-3.774-1.791l-3.583-10.055c-0.574-1.615,0.176-3.197,1.793-3.773l57.27-20.409
		c1.615-0.576,3.199,0.174,3.772,1.791l7.005,19.658c5.696,15.977,1.179,24.873-13.546,30.118
		c-8.346,2.975-14.916,2.99-20.024-0.552c-0.397-0.263-0.878-0.193-1.265,0.146L340.891,180.333z M373.138,136.265
		c-0.575-1.615-2.159-2.367-3.773-1.791l-6.643,2.368c-1.616,0.576-2.369,2.16-1.79,3.775l1.629,4.578
		c1.535,4.31,2.845,6.271,8.409,4.288c5.566-1.983,5.335-4.33,3.8-8.638L373.138,136.265z"/>
</g>
<g>
	<path d="M52.696,231.793c5.905-2.168,22.201-6.725,29.981,14.479c6.991,19.058-4.72,26.706-11.478,29.592
		c-1.22,0.549-2.502,0.103-3.228-1.05l-5.881-9.111c-1.046-1.748-0.319-3.639,1.461-4.596c3.773-1.893,5.509-4.357,3.738-9.188
		c-2.43-6.622-6.799-5.524-13.688-2.998l-12.884,4.727c-6.889,2.527-10.929,4.517-8.501,11.139c1.806,4.92,4.623,5.409,8.936,4.437
		c1.979-0.419,3.667,0.583,3.875,2.538l1.471,10.932c0.191,1.351-0.498,2.516-1.871,2.919c-6.932,2.136-20.809,3.879-27.802-15.179
		c-7.779-21.205,7.599-28.27,13.504-30.436L52.696,231.793z"/>
	<path d="M119.418,302.958c1.266,1.425,1.184,2.771-0.241,4.035l-7.984,7.084c-1.353,1.2-2.771,1.185-4.036-0.239l-15.305-17.253
		c-1.203-1.354-2.61-1.506-4.036-0.241l-2.281,2.023c-1.355,1.202-1.445,2.683-0.241,4.038l9.802,11.049
		c1.266,1.425,1.185,2.771-0.239,4.035l-7.986,7.084c-1.355,1.201-2.771,1.184-4.037-0.242l-9.802-11.048
		c-1.201-1.355-2.611-1.505-4.037-0.239l-2.281,2.021c-1.354,1.2-1.442,2.682-0.24,4.036l15.304,17.251
		c1.265,1.427,1.185,2.772-0.241,4.036l-7.984,7.084c-1.426,1.265-2.771,1.184-4.036-0.241l-26.562-29.939
		c-1.201-1.353-1.114-2.834,0.241-4.036l45.623-40.476c1.426-1.265,2.834-1.113,4.036,0.24L119.418,302.958z"/>
	<path d="M139.514,314.869c1.464,0.689,2.129,1.74,2.083,3.403l-1.792,34.229c-0.02,0.938,0.751,1.09,1.158,0.229l13.111-27.847
		c0.812-1.724,2.165-2.139,3.803-1.368l9.656,4.545c1.725,0.813,2.181,2.08,1.37,3.805l-25.977,55.177
		c-0.77,1.638-2.079,2.181-3.805,1.368l-12.673-5.967c-1.464-0.689-2.128-1.739-2.084-3.402l1.792-34.229
		c0.021-0.938-0.75-1.09-1.157-0.229l-13.109,27.847c-0.773,1.639-2.081,2.181-3.806,1.371l-9.656-4.547
		c-1.638-0.771-2.139-2.166-1.369-3.805l25.975-55.176c0.813-1.725,2.167-2.142,3.806-1.371L139.514,314.869z"/>
	<path d="M195.271,348.989c-0.01-1.906-0.968-2.854-2.875-2.845l-13.342,0.067c-1.811,0.009-2.865-1.034-2.874-2.844l-0.056-10.674
		c-0.008-1.905,1.036-2.865,2.846-2.874l48.794-0.248c1.907-0.009,2.865,0.938,2.874,2.845l0.057,10.674
		c0.007,1.812-0.939,2.863-2.845,2.874l-13.343,0.067c-1.811,0.01-2.855,0.969-2.844,2.875l0.225,44.601
		c0.008,1.812-0.938,2.864-2.844,2.876l-10.674,0.055c-1.811,0.009-2.863-1.034-2.875-2.845L195.271,348.989z"/>
	<path d="M310.364,360.94c2.292,1.633,2.103,4.7-0.548,6.005l-9.747,4.797c-0.855,0.423-1.835,0.372-2.556-0.229l-17.35-12.807
		c-0.298-0.171-0.64-0.217-0.897-0.09l-3.417,1.684c-1.54,0.758-2.104,2.416-1.347,3.956l6.648,13.508
		c0.758,1.539,0.195,3.196-1.346,3.955l-9.575,4.715c-1.538,0.758-3.197,0.193-3.956-1.347l-26.848-54.546
		c-0.759-1.539-0.196-3.199,1.344-3.955l18.725-9.216c15.22-7.491,24.572-4.025,31.476,9.997c3.911,7.952,4.682,14.476,1.751,19.955
		c-0.216,0.426-0.092,0.896,0.29,1.238L310.364,360.94z M262.885,333.967c-1.537,0.757-2.104,2.415-1.346,3.955l3.114,6.326
		c0.758,1.539,2.417,2.104,3.955,1.346l4.36-2.145c4.104-2.02,5.903-3.544,3.294-8.845c-2.609-5.302-4.914-4.804-9.019-2.783
		L262.885,333.967z"/>
	<path d="M300.074,286.076c1.304-1.389,2.651-1.431,4.041-0.125l44.448,41.763c1.319,1.239,1.432,2.652,0.126,4.042l-7.177,7.639
		c-1.24,1.319-2.723,1.365-4.042,0.127l-44.448-41.763c-1.389-1.305-1.366-2.723-0.126-4.043L300.074,286.076z"/>
	<path d="M331.209,282.749c-5.763-2.524-20.679-10.516-11.616-31.205c8.146-18.595,21.891-16.007,28.765-13.411
		c1.261,0.45,1.878,1.654,1.604,2.992L347.9,251.77c-0.454,1.985-2.289,2.849-4.235,2.306c-4.032-1.245-6.989-0.669-9.055,4.046
		c-2.831,6.459,1.082,8.694,7.805,11.638l12.57,5.507c6.72,2.945,11.016,4.306,13.846-2.154c2.102-4.8,0.406-7.105-3.38-9.387
		c-1.718-1.066-2.241-2.96-1.039-4.517l6.504-8.909c0.796-1.106,2.102-1.471,3.372-0.812c6.482,3.256,17.703,11.606,9.559,30.199
		c-9.063,20.691-25.051,15.143-30.812,12.62L331.209,282.749z"/>
</g>
<circle cx="38.595" cy="201.092" r="9.858"/>
<circle cx="362.857" cy="201.092" r="9.858"/>
</svg>
