<?xml version="1.0" encoding="utf-8"?>
<!-- Generator: Adobe Illustrator 15.0.0, SVG Export Plug-In  -->
<!DOCTYPE svg PUBLIC "-//W3C//DTD SVG 1.1//EN" "http://www.w3.org/Graphics/SVG/1.1/DTD/svg11.dtd" [
	<!ENTITY ns_flows "http://ns.adobe.com/Flows/1.0/">
]>
<svg version="1.1"
	 xmlns="http://www.w3.org/2000/svg" xmlns:xlink="http://www.w3.org/1999/xlink" xmlns:a="http://ns.adobe.com/AdobeSVGViewerExtensions/3.0/"
	 x="0px" y="0px" width="516px" height="155px" viewBox="-0.103 -0.587 516 155" enable-background="new -0.103 -0.587 516 155"
	 xml:space="preserve">
<defs>
</defs>
<path fill="#EE2A7B" d="M79.674,138.65V85.871H67.591v-5.607h18.812v52.779h12.625v5.607H79.674z"/>
<path fill="#EE2A7B" d="M146.887,135.962c-5.378,2.54-10.467,3.81-15.266,3.81c-3.642,0-6.897-0.903-9.768-2.711
	c-2.87-1.807-5.167-4.391-6.892-7.752c-1.725-3.362-2.586-6.959-2.586-10.79c0-3.687,0.819-7.229,2.46-10.626
	c1.64-3.397,3.931-6.043,6.873-7.934c2.942-1.892,6.222-2.838,9.84-2.838c4.799,0,8.651,1.71,11.558,5.129s4.359,8.692,4.359,15.819
	v1.444H119.61c0,2.805,0.585,5.367,1.755,7.688c1.17,2.32,2.707,4.062,4.612,5.222c1.905,1.161,4.075,1.741,6.512,1.741
	c4.341,0,9.14-1.451,14.397-4.353V135.962z M120.009,114.485h20.149v-0.974c0-3.294-0.809-5.914-2.424-7.862
	c-1.616-1.947-3.774-2.921-6.476-2.921c-2.726,0-5.082,0.992-7.072,2.976C122.197,107.688,120.805,110.614,120.009,114.485z"/>
<path fill="#EE2A7B" d="M184.302,129.61c-2.051,3.363-4.518,5.897-7.4,7.604c-2.883,1.705-5.53,2.558-7.943,2.558
	c-3.377,0-6.411-1.459-9.101-4.377c-2.69-2.918-4.035-7.344-4.035-13.276c0-4.679,0.894-8.856,2.681-12.534
	c1.786-3.678,4.177-6.584,7.171-8.719c2.993-2.135,6.699-3.201,11.119-3.201c1.279,0,3.206,0.133,5.781,0.397
	c0.385,0.049,0.963,0.108,1.733,0.181h6.75v28.535c0,4.875,0.519,8.833,1.556,11.873h-7.019
	C185.053,136.441,184.622,133.428,184.302,129.61z M184.329,121.562v-17.349c-2.393-0.628-4.615-0.942-6.668-0.942
	c-4.155,0-7.616,1.606-10.382,4.818c-2.767,3.211-4.149,7.581-4.149,13.11c0,4.009,0.755,7.032,2.265,9.073
	c1.51,2.04,3.231,3.061,5.164,3.061c2.102,0,4.421-1.063,6.957-3.188C180.053,128.021,182.323,125.159,184.329,121.562z"/>
<path fill="#EE2A7B" d="M202.199,138.65V98.242h6.729v8.827c1.929-3.111,4.256-5.547,6.981-7.308c2.726-1.76,5.45-2.641,8.176-2.641
	c2.388,0,4.559,0.633,6.512,1.899c1.953,1.266,3.322,2.925,4.105,4.974c0.784,2.051,1.176,6.078,1.176,12.083v22.573h-6.729v-23.405
	c0-3.883-0.187-6.445-0.561-7.688s-1.062-2.261-2.062-3.057c-1.002-0.796-2.093-1.194-3.274-1.194c-2.363,0-4.901,1.122-7.615,3.365
	c-2.713,2.242-4.95,5.052-6.71,8.429v23.55H202.199z"/>
<path fill="#EE2A7B" d="M280.664,137.493c-4.511,1.519-8.804,2.278-12.879,2.278c-4.052,0-7.651-0.935-10.798-2.804
	c-3.147-1.868-5.602-4.4-7.362-7.597c-1.761-3.195-2.641-6.831-2.641-10.906c0-6.126,1.995-11.215,5.987-15.267
	c3.991-4.052,8.809-6.077,14.452-6.077c4.172,0,8.585,0.784,13.24,2.352v6.476c-4.703-2.146-8.912-3.22-12.626-3.22
	c-2.459,0-4.774,0.609-6.945,1.826c-2.171,1.219-3.847,3.118-5.028,5.698c-1.182,2.581-1.772,5.233-1.772,7.958
	c0,3.643,1.14,7.115,3.419,10.419c2.278,3.305,5.854,4.956,10.726,4.956c1.471,0,2.918-0.103,4.341-0.308
	c1.423-0.204,4.052-0.959,7.887-2.261V137.493z"/>
<path fill="#EE2A7B" d="M317.68,129.61c-2.051,3.363-4.518,5.897-7.4,7.604c-2.883,1.705-5.53,2.558-7.943,2.558
	c-3.377,0-6.411-1.459-9.101-4.377c-2.69-2.918-4.035-7.344-4.035-13.276c0-4.679,0.894-8.856,2.681-12.534
	c1.786-3.678,4.177-6.584,7.171-8.719c2.993-2.135,6.699-3.201,11.119-3.201c1.279,0,3.206,0.133,5.781,0.397
	c0.385,0.049,0.963,0.108,1.733,0.181h6.75v28.535c0,4.875,0.519,8.833,1.556,11.873h-7.019
	C318.431,136.441,318,133.428,317.68,129.61z M317.707,121.562v-17.349c-2.393-0.628-4.615-0.942-6.668-0.942
	c-4.155,0-7.616,1.606-10.382,4.818c-2.767,3.211-4.149,7.581-4.149,13.11c0,4.009,0.755,7.032,2.265,9.073
	c1.51,2.04,3.231,3.061,5.164,3.061c2.102,0,4.421-1.063,6.957-3.188C313.431,128.021,315.701,125.159,317.707,121.562z"/>
<path fill="#EE2A7B" d="M342.183,140.351c-1.616,0-3.003-0.579-4.16-1.736c-1.158-1.157-1.736-2.544-1.736-4.16
	c0-1.64,0.584-3.032,1.754-4.179c1.17-1.145,2.551-1.718,4.143-1.718s2.972,0.573,4.142,1.718c1.17,1.146,1.755,2.539,1.755,4.179
	c0,1.616-0.579,3.003-1.736,4.16C345.185,139.771,343.798,140.351,342.183,140.351z"/>
<path fill="#EE2A7B" d="M356.998,138.65V98.242h5.896v9.262c1.857-3.931,3.587-6.645,5.191-8.14
	c1.604-1.495,3.226-2.243,4.865-2.243c1.954,0,3.527,0.766,4.721,2.297c1.194,1.532,1.791,3.708,1.791,6.53v2.17
	c0.796-2.46,1.755-4.455,2.876-5.986s2.285-2.75,3.491-3.654c1.205-0.904,2.592-1.356,4.16-1.356c1.736,0,3.22,0.736,4.449,2.207
	c1.23,1.471,1.845,4.401,1.845,8.79v30.532h-5.896v-27.602c0-2.267-0.072-3.816-0.217-4.648s-0.435-1.466-0.868-1.899
	c-0.435-0.435-0.904-0.651-1.411-0.651c-1.254,0-2.599,0.959-4.033,2.876c-1.436,1.917-2.9,5.095-4.396,9.532v22.393h-5.607v-27.565
	c0-3.569-0.351-5.667-1.052-6.295c-0.702-0.627-1.331-0.94-1.888-0.94c-1.234,0-2.56,1.073-3.975,3.22s-2.765,4.896-4.047,8.248
	v23.333H356.998z"/>
<path fill="#EE2A7B" d="M410.719,107.327c2.074-3.378,4.546-5.923,7.416-7.637c2.87-1.712,5.511-2.569,7.923-2.569
	c3.376,0,6.415,1.46,9.116,4.377c2.7,2.919,4.052,7.344,4.052,13.276c0,4.68-0.899,8.857-2.695,12.535
	c-1.797,3.678-4.19,6.584-7.181,8.718c-2.991,2.135-6.692,3.202-11.106,3.202c-1.254,0-3.184-0.133-5.788-0.398
	c-0.386-0.049-0.965-0.108-1.736-0.181v15.7h-6.729V98.242h6.729V107.327z M410.719,115.331v17.35
	c2.436,0.628,4.679,0.941,6.729,0.941c4.076,0,7.507-1.6,10.292-4.799c2.786-3.199,4.179-7.575,4.179-13.13
	c0-4.032-0.76-7.063-2.279-9.091c-1.52-2.027-3.244-3.042-5.173-3.042c-2.099,0-4.408,1.063-6.928,3.188
	C415.018,108.873,412.745,111.734,410.719,115.331z"/>
<path fill="#EE2A7B" d="M51.355,26.377C28.398,23.114,6.577,40.594,0,66.299c7.625-24.182,29.12-39.515,51.415-35.189
	c21.534,4.177,36.77,25.33,37.614,49.855c0.164-0.603,0.33-1.204,0.51-1.8C90.443,52.587,74.353,29.646,51.355,26.377z"/>
<path fill="#EE2A7B" d="M89.032,85.376c0.02-0.148,0.031-0.296,0.049-0.443c-0.015,0.039-0.029,0.079-0.044,0.118
	C89.034,85.159,89.036,85.268,89.032,85.376z"/>
<path fill="#EE2A7B" d="M514.376,71.643c-2.99-8.312-2.304-17.347,1.199-24.961c-3.379-2.544-6.236-5.97-8.265-10.144
	c-2.319,7.66-2.272,16.478,0.687,24.829C480.651,17.425,432.882-8.141,391.752,2.345c-42.716,10.885-63.988,57.016-52.854,108.068
	c-13.644-40.183-58.423-75.979-114.285-87.108c-64.665-12.887-121.753,11.752-135.074,55.86c-0.18,0.596-0.346,1.197-0.51,1.8
	c-0.871,3.203-1.521,6.503-1.922,9.897c0.556-1.975,1.203-3.91,1.931-5.812c0.015-0.039,0.029-0.079,0.044-0.118
	c15.701-40.786,70.305-64.265,132.655-53.842c63.821,10.671,114.169,53.243,121.275,99.384c-0.204-2.914-0.585-5.822-1.128-8.719
	c0.838,2.71,1.768,5.427,2.791,8.146c-14.731-53.321,5.531-104.246,49.258-117.941c40.092-12.554,87.18,10.169,115.217,52.276
	c0.333,0.749,0.682,1.484,1.053,2.196c-1.225-1.689-2.63-3.27-4.217-4.704c-5.66-5.128-12.561-7.488-19.238-7.201
	c2.656,3.06,4.493,6.737,5.494,10.695c6.936-1.452,14.163,0.214,19.763,5.284c0.472,0.426,0.921,0.879,1.353,1.339
	c-0.195-0.428-0.403-0.851-0.618-1.271c0.531,0.751,1.084,1.475,1.659,2.166c0.01,0.017,0.02,0.034,0.029,0.051
	c-0.006-0.014-0.014-0.027-0.021-0.041c0.264,0.316,0.527,0.633,0.799,0.937C514.911,73.022,514.63,72.345,514.376,71.643z"/>
</svg>
