<?xml version="1.0" encoding="UTF-8" standalone="no"?>
<!-- Created with Inkscape (http://www.inkscape.org/) -->

<svg
   xmlns:dc="http://purl.org/dc/elements/1.1/"
   xmlns:cc="http://creativecommons.org/ns#"
   xmlns:rdf="http://www.w3.org/1999/02/22-rdf-syntax-ns#"
   xmlns:svg="http://www.w3.org/2000/svg"
   xmlns="http://www.w3.org/2000/svg"
   xmlns:sodipodi="http://sodipodi.sourceforge.net/DTD/sodipodi-0.dtd"
   xmlns:inkscape="http://www.inkscape.org/namespaces/inkscape"
   id="svg2"
   version="1.1"
   inkscape:version="0.91 r13725"
   xml:space="preserve"
   width="300"
   height="131.25"
   viewBox="0 0 300 131.25"
   sodipodi:docname="the sources logo.svg"
   inkscape:export-filename="/home/salim/ownCloud/Source/The Sources/Logos/the_sources_logo_white.png"
   inkscape:export-xdpi="63.939999"
   inkscape:export-ydpi="63.939999"><metadata
     id="metadata8"><rdf:RDF><cc:Work
         rdf:about=""><dc:format>image/svg+xml</dc:format><dc:type
           rdf:resource="http://purl.org/dc/dcmitype/StillImage" /><dc:title></dc:title></cc:Work></rdf:RDF></metadata><defs
     id="defs6" /><sodipodi:namedview
     pagecolor="#ffffff"
     bordercolor="#666666"
     borderopacity="1"
     objecttolerance="10"
     gridtolerance="10"
     guidetolerance="10"
     inkscape:pageopacity="0"
     inkscape:pageshadow="2"
     inkscape:window-width="3200"
     inkscape:window-height="1726"
     id="namedview4"
     showgrid="false"
     inkscape:zoom="1.1693694"
     inkscape:cx="-188.99075"
     inkscape:cy="31.418529"
     inkscape:window-x="0"
     inkscape:window-y="0"
     inkscape:window-maximized="1"
     inkscape:current-layer="g10" /><g
     id="g10"
     inkscape:groupmode="layer"
     inkscape:label="ink_ext_XXXXXX"
     transform="matrix(1.25,0,0,-1.25,0,131.25)"><g
       id="g14"
       inkscape:export-xdpi="63.939999"
       inkscape:export-ydpi="63.939999"
       inkscape:export-filename="/home/salim/ownCloud/code/thesources-site/img/the_sources_logo.png"
       transform="matrix(0.41492061,0,0,0.41492061,38.548656,2.886301)"
       style="fill:#000000"><text
         id="text20"
         style="font-variant:normal;font-weight:normal;font-size:110.06400299px;font-family:Offside;-inkscape-font-specification:Offside-Regular;writing-mode:lr-tb;fill:#000000;fill-opacity:1;fill-rule:nonzero;stroke:none"
         transform="scale(1,-1)"
         x="-75.528999"
         y="-33.930855"><tspan
           id="tspan22"
           sodipodi:role="line"
           x="-75.528999"
           y="-33.930855">sources</tspan></text>
<text
         y="-119.62269"
         x="-70.881241"
         id="text20-0"
         style="font-variant:normal;font-weight:normal;font-size:110.06400299px;font-family:Offside;-inkscape-font-specification:Offside-Regular;writing-mode:lr-tb;fill:#000000;fill-opacity:1;fill-rule:nonzero;stroke:none"
         transform="scale(1,-1)"><tspan
           id="tspan22-4"
           sodipodi:role="line"
           x="-70.881241"
           y="-119.62269">the</tspan></text>
</g><path
       inkscape:connector-curvature="0"
       id="path24"
       style="fill:#18c953;fill-opacity:1;fill-rule:evenodd;stroke:none"
       d="m 231.04226,50.827141 c 0.75726,0 1.37042,-0.434845 1.37042,-0.971445 0,-0.536542 -0.61316,-0.971445 -1.37042,-0.971445 -0.75661,0 -1.37043,0.434903 -1.37043,0.971445 0,0.5366 0.61382,0.971445 1.37043,0.971445"
       inkscape:export-xdpi="63.939999"
       inkscape:export-ydpi="63.939999"
       inkscape:export-filename="/home/salim/ownCloud/code/thesources-site/img/the_sources_logo.png" /><path
       inkscape:connector-curvature="0"
       id="path26"
       style="fill:#18c953;fill-opacity:1;fill-rule:evenodd;stroke:none"
       d="m 233.71914,49.856986 -0.63772,0.170836 c -0.21193,0.05705 -0.4245,0.113846 -0.63708,0.170897 0.0633,-0.104477 0.0866,-0.224136 0.0866,-0.337724 0.011,-0.110295 -0.0226,-0.205403 -0.0866,-0.34548 l 0.63708,0.170831 0.63772,0.17064"
       inkscape:export-xdpi="63.939999"
       inkscape:export-ydpi="63.939999"
       inkscape:export-filename="/home/salim/ownCloud/code/thesources-site/img/the_sources_logo.png" /><path
       inkscape:connector-curvature="0"
       id="path28"
       style="fill:#18c953;fill-opacity:1;fill-rule:evenodd;stroke:none"
       d="m 229.13039,49.859505 c -1.24637,1.058541 -2.80094,1.755898 -4.57713,2.193262 -0.48136,-1.425215 -0.43225,-2.891134 0,-4.386516 1.72773,0.366674 3.23255,1.135231 4.57713,2.193258"
       inkscape:export-xdpi="63.939999"
       inkscape:export-ydpi="63.939999"
       inkscape:export-filename="/home/salim/ownCloud/code/thesources-site/img/the_sources_logo.png" /><path
       inkscape:connector-curvature="0"
       id="path30"
       style="fill:#18c953;fill-opacity:1;fill-rule:evenodd;stroke:none"
       d="m 229.01344,55.529225 c 0.61705,0.522713 1.12554,0.42075 1.57847,0 -0.71719,-3.591532 -0.72107,-7.322365 0,-11.185459 -0.52594,-0.60826 -1.05189,-0.755447 -1.57847,0 -2.56963,3.47891 -2.6743,7.20018 0,11.185459"
       inkscape:export-xdpi="63.939999"
       inkscape:export-ydpi="63.939999"
       inkscape:export-filename="/home/salim/ownCloud/code/thesources-site/img/the_sources_logo.png" /><path
       inkscape:connector-curvature="0"
       id="path32"
       style="fill:#18c953;fill-opacity:1;fill-rule:evenodd;stroke:none"
       d="m 224.3633,51.645643 1.65278,-0.507523 -0.18543,-0.603996 -1.65278,0.507332 c -0.16606,0.05124 -0.26039,0.228667 -0.20935,0.394718 l 0,2.58e-4 c 0.051,0.166051 0.22873,0.260196 0.39478,0.209215"
       inkscape:export-xdpi="63.939999"
       inkscape:export-ydpi="63.939999"
       inkscape:export-filename="/home/salim/ownCloud/code/thesources-site/img/the_sources_logo.png" /><path
       inkscape:connector-curvature="0"
       id="path34"
       style="fill:#18c953;fill-opacity:1;fill-rule:evenodd;stroke:none"
       d="m 224.11842,51.07777 1.72062,-0.165794 -0.0607,-0.628937 -1.72062,0.165537 c -0.17317,0.01668 -0.3011,0.171873 -0.28429,0.34477 l 0,2.57e-4 c 0.0168,0.172906 0.17186,0.300839 0.34502,0.284167"
       inkscape:export-xdpi="63.939999"
       inkscape:export-ydpi="63.939999"
       inkscape:export-filename="/home/salim/ownCloud/code/thesources-site/img/the_sources_logo.png" /><path
       inkscape:connector-curvature="0"
       id="path36"
       style="fill:#18c953;fill-opacity:1;fill-rule:evenodd;stroke:none"
       d="m 224.09128,50.227473 1.72838,-0.04161 -0.0155,-0.632036 -1.72772,0.04193 c -0.17381,0.0043 -0.31273,0.149898 -0.30821,0.323318 l 0,2.62e-4 c 0.004,0.173868 0.14926,0.31246 0.32306,0.308132"
       inkscape:export-xdpi="63.939999"
       inkscape:export-ydpi="63.939999"
       inkscape:export-filename="/home/salim/ownCloud/code/thesources-site/img/the_sources_logo.png" /><path
       inkscape:connector-curvature="0"
       id="path38"
       style="fill:#18c953;fill-opacity:1;fill-rule:evenodd;stroke:none"
       d="m 224.3633,51.881932 1.65278,-0.507336 -0.18543,-0.604187 -1.65278,0.507527 c -0.16606,0.05098 -0.26039,0.228663 -0.20935,0.394714 l 0,2.61e-4 c 0.051,0.166122 0.22873,0.260259 0.39478,0.209021"
       inkscape:export-xdpi="63.939999"
       inkscape:export-ydpi="63.939999"
       inkscape:export-filename="/home/salim/ownCloud/code/thesources-site/img/the_sources_logo.png" /><path
       inkscape:connector-curvature="0"
       id="path40"
       style="fill:#18c953;fill-opacity:1;fill-rule:evenodd;stroke:none"
       d="m 224.11842,48.649775 1.72062,0.165599 -0.0607,0.628937 -1.72062,-0.165537 c -0.17317,-0.01668 -0.3011,-0.171674 -0.28429,-0.34477 l 0,-2.62e-4 c 0.0168,-0.172897 0.17186,-0.300634 0.34502,-0.283967"
       inkscape:export-xdpi="63.939999"
       inkscape:export-ydpi="63.939999"
       inkscape:export-filename="/home/salim/ownCloud/code/thesources-site/img/the_sources_logo.png" /><path
       inkscape:connector-curvature="0"
       id="path42"
       style="fill:#18c953;fill-opacity:1;fill-rule:evenodd;stroke:none"
       d="m 224.3633,47.845418 1.65278,0.507332 -0.18543,0.604191 -1.65278,-0.50727 c -0.16606,-0.05124 -0.26039,-0.228663 -0.20935,-0.39478 l 0,-2.57e-4 c 0.051,-0.166052 0.22873,-0.26045 0.39478,-0.209216"
       inkscape:export-xdpi="63.939999"
       inkscape:export-ydpi="63.939999"
       inkscape:export-filename="/home/salim/ownCloud/code/thesources-site/img/the_sources_logo.png" /><path
       inkscape:connector-curvature="0"
       id="path44"
       style="fill:#12913c;fill-opacity:1;fill-rule:evenodd;stroke:none"
       d="m 220.924,38.709586 c 0.75661,0 1.37042,-0.43484 1.37042,-0.971444 0,-0.536538 -0.61381,-0.971443 -1.37042,-0.971443 -0.75661,0 -1.37042,0.434905 -1.37042,0.971443 0,0.536604 0.61381,0.971444 1.37042,0.971444"
       inkscape:export-xdpi="63.939999"
       inkscape:export-ydpi="63.939999"
       inkscape:export-filename="/home/salim/ownCloud/code/thesources-site/img/the_sources_logo.png" /><path
       inkscape:connector-curvature="0"
       id="path46"
       style="fill:#12913c;fill-opacity:1;fill-rule:evenodd;stroke:none"
       d="m 223.60023,37.739435 -0.63707,0.170834 c -0.21257,0.05679 -0.42451,0.113847 -0.63708,0.1709 0.0627,-0.104737 0.0866,-0.22414 0.0866,-0.337987 0.011,-0.110034 -0.0226,-0.205143 -0.0866,-0.345223 l 0.63708,0.170576 0.63707,0.1709"
       inkscape:export-xdpi="63.939999"
       inkscape:export-ydpi="63.939999"
       inkscape:export-filename="/home/salim/ownCloud/code/thesources-site/img/the_sources_logo.png" /><path
       inkscape:connector-curvature="0"
       id="path48"
       style="fill:#12913c;fill-opacity:1;fill-rule:evenodd;stroke:none"
       d="m 219.01213,37.741955 c -1.24702,1.05854 -2.80094,1.755899 -4.57778,2.193259 -0.48135,-1.425215 -0.4316,-2.891393 0,-4.386777 1.72774,0.366674 3.2332,1.135494 4.57778,2.193518"
       inkscape:export-xdpi="63.939999"
       inkscape:export-ydpi="63.939999"
       inkscape:export-filename="/home/salim/ownCloud/code/thesources-site/img/the_sources_logo.png" /><path
       inkscape:connector-curvature="0"
       id="path50"
       style="fill:#12913c;fill-opacity:1;fill-rule:evenodd;stroke:none"
       d="m 218.89518,43.411671 c 0.61704,0.52271 1.12554,0.420752 1.57847,0 -0.71719,-3.591532 -0.72172,-7.322624 0,-11.18546 -0.52659,-0.608259 -1.05253,-0.755445 -1.57847,0 -2.56963,3.478717 -2.67494,7.200182 0,11.18546"
       inkscape:export-xdpi="63.939999"
       inkscape:export-ydpi="63.939999"
       inkscape:export-filename="/home/salim/ownCloud/code/thesources-site/img/the_sources_logo.png" /><path
       inkscape:connector-curvature="0"
       id="path52"
       style="fill:#12913c;fill-opacity:1;fill-rule:evenodd;stroke:none"
       d="m 214.24504,39.528093 1.65278,-0.507529 -0.18544,-0.604252 -1.65277,0.507593 c -0.16606,0.05098 -0.26039,0.228662 -0.20935,0.394715 l 0,2.58e-4 c 0.0511,0.166054 0.22873,0.260258 0.39478,0.209215"
       inkscape:export-xdpi="63.939999"
       inkscape:export-ydpi="63.939999"
       inkscape:export-filename="/home/salim/ownCloud/code/thesources-site/img/the_sources_logo.png" /><path
       inkscape:connector-curvature="0"
       id="path54"
       style="fill:#12913c;fill-opacity:1;fill-rule:evenodd;stroke:none"
       d="m 213.99952,38.960216 1.72061,-0.165794 -0.0601,-0.628935 -1.72062,0.165537 c -0.17316,0.01667 -0.30109,0.171609 -0.28494,0.34477 l 0,2.58e-4 c 0.0168,0.172903 0.17186,0.300835 0.34503,0.284164"
       inkscape:export-xdpi="63.939999"
       inkscape:export-ydpi="63.939999"
       inkscape:export-filename="/home/salim/ownCloud/code/thesources-site/img/the_sources_logo.png" /><path
       inkscape:connector-curvature="0"
       id="path56"
       style="fill:#12913c;fill-opacity:1;fill-rule:evenodd;stroke:none"
       d="m 213.97302,38.109921 1.72838,-0.04161 -0.0155,-0.632036 -1.72773,0.04193 c -0.17445,0.0043 -0.31272,0.149642 -0.30884,0.323319 l 0,2.59e-4 c 0.005,0.173871 0.1499,0.312464 0.3237,0.308135"
       inkscape:export-xdpi="63.939999"
       inkscape:export-ydpi="63.939999"
       inkscape:export-filename="/home/salim/ownCloud/code/thesources-site/img/the_sources_logo.png" /><path
       inkscape:connector-curvature="0"
       id="path58"
       style="fill:#12913c;fill-opacity:1;fill-rule:evenodd;stroke:none"
       d="m 214.24504,39.764379 1.65278,-0.507334 -0.18544,-0.604188 -1.65277,0.507269 c -0.16606,0.05124 -0.26039,0.228921 -0.20935,0.394975 l 0,2.58e-4 c 0.0511,0.166118 0.22873,0.260257 0.39478,0.20902"
       inkscape:export-xdpi="63.939999"
       inkscape:export-ydpi="63.939999"
       inkscape:export-filename="/home/salim/ownCloud/code/thesources-site/img/the_sources_logo.png" /><path
       inkscape:connector-curvature="0"
       id="path60"
       style="fill:#12913c;fill-opacity:1;fill-rule:evenodd;stroke:none"
       d="m 213.99952,36.531963 1.72061,0.165859 -0.0601,0.628935 -1.72062,-0.165536 c -0.17316,-0.01667 -0.30109,-0.171675 -0.28494,-0.34477 l 0,-2.59e-4 c 0.0168,-0.172902 0.17186,-0.300834 0.34503,-0.284229"
       inkscape:export-xdpi="63.939999"
       inkscape:export-ydpi="63.939999"
       inkscape:export-filename="/home/salim/ownCloud/code/thesources-site/img/the_sources_logo.png" /><path
       inkscape:connector-curvature="0"
       id="path62"
       style="fill:#12913c;fill-opacity:1;fill-rule:evenodd;stroke:none"
       d="m 214.24504,35.727865 1.65278,0.507335 -0.18544,0.604188 -1.65277,-0.50727 c -0.16606,-0.05124 -0.26039,-0.228921 -0.20935,-0.395038 l 0,-2.59e-4 c 0.0511,-0.166053 0.22873,-0.260193 0.39478,-0.208956"
       inkscape:export-xdpi="63.939999"
       inkscape:export-ydpi="63.939999"
       inkscape:export-filename="/home/salim/ownCloud/code/thesources-site/img/the_sources_logo.png" /><path
       inkscape:connector-curvature="0"
       id="path64"
       style="fill:#12913c;fill-opacity:1;fill-rule:evenodd;stroke:none"
       d="m 220.31341,63.86393 c 0.75661,0 1.37043,-0.43465 1.37043,-0.971445 0,-0.536604 -0.61382,-0.971184 -1.37043,-0.971184 -0.7566,0 -1.37042,0.43458 -1.37042,0.971184 0,0.536795 0.61382,0.971445 1.37042,0.971445"
       inkscape:export-xdpi="63.939999"
       inkscape:export-ydpi="63.939999"
       inkscape:export-filename="/home/salim/ownCloud/code/thesources-site/img/the_sources_logo.png" /><path
       inkscape:connector-curvature="0"
       id="path66"
       style="fill:#12913c;fill-opacity:1;fill-rule:evenodd;stroke:none"
       d="m 222.9903,62.893971 -0.63773,0.170901 c -0.21192,0.0568 -0.4245,0.113846 -0.63707,0.170831 0.0627,-0.104734 0.0866,-0.224073 0.0866,-0.337919 0.011,-0.110033 -0.0227,-0.205469 -0.0866,-0.345542 l 0.63707,0.170897 0.63773,0.170832"
       inkscape:export-xdpi="63.939999"
       inkscape:export-ydpi="63.939999"
       inkscape:export-filename="/home/salim/ownCloud/code/thesources-site/img/the_sources_logo.png" /><path
       inkscape:connector-curvature="0"
       id="path68"
       style="fill:#12913c;fill-opacity:1;fill-rule:evenodd;stroke:none"
       d="m 218.40154,62.896232 c -1.24637,1.058541 -2.80094,1.75616 -4.57777,2.193586 -0.48072,-1.425539 -0.43161,-2.891395 0,-4.386844 1.72773,0.366736 3.23319,1.135235 4.57777,2.193258"
       inkscape:export-xdpi="63.939999"
       inkscape:export-ydpi="63.939999"
       inkscape:export-filename="/home/salim/ownCloud/code/thesources-site/img/the_sources_logo.png" /><path
       inkscape:connector-curvature="0"
       id="path70"
       style="fill:#12913c;fill-opacity:1;fill-rule:evenodd;stroke:none"
       d="m 218.28459,68.566209 c 0.61705,0.522447 1.12555,0.420493 1.57848,0 -0.7172,-3.591789 -0.72108,-7.322623 0,-11.18572 -0.52595,-0.608 -1.05253,-0.755122 -1.57848,0 -2.56962,3.478976 -2.67429,7.200246 0,11.18572"
       inkscape:export-xdpi="63.939999"
       inkscape:export-ydpi="63.939999"
       inkscape:export-filename="/home/salim/ownCloud/code/thesources-site/img/the_sources_logo.png" /><path
       inkscape:connector-curvature="0"
       id="path72"
       style="fill:#12913c;fill-opacity:1;fill-rule:evenodd;stroke:none"
       d="m 213.6351,64.682436 1.65214,-0.507336 -0.18544,-0.604186 -1.65278,0.507269 c -0.16605,0.05124 -0.26039,0.228663 -0.20934,0.39478 l 0,2.62e-4 c 0.051,0.166308 0.22872,0.26045 0.39542,0.209211"
       inkscape:export-xdpi="63.939999"
       inkscape:export-ydpi="63.939999"
       inkscape:export-filename="/home/salim/ownCloud/code/thesources-site/img/the_sources_logo.png" /><path
       inkscape:connector-curvature="0"
       id="path74"
       style="fill:#12913c;fill-opacity:1;fill-rule:evenodd;stroke:none"
       d="m 213.38893,64.114563 1.72127,-0.165603 -0.0607,-0.629194 -1.72062,0.165861 c -0.17316,0.0166 -0.30109,0.171607 -0.28429,0.344703 l 0,2.62e-4 c 0.0168,0.172901 0.17122,0.300634 0.34438,0.283971"
       inkscape:export-xdpi="63.939999"
       inkscape:export-ydpi="63.939999"
       inkscape:export-filename="/home/salim/ownCloud/code/thesources-site/img/the_sources_logo.png" /><path
       inkscape:connector-curvature="0"
       id="path76"
       style="fill:#12913c;fill-opacity:1;fill-rule:evenodd;stroke:none"
       d="m 213.36244,63.264524 1.72838,-0.04194 -0.0155,-0.631709 -1.72774,0.04187 c -0.17444,0.0041 -0.31271,0.149707 -0.30819,0.323323 l 0,2.53e-4 c 0.004,0.173677 0.14925,0.312207 0.32306,0.308203"
       inkscape:export-xdpi="63.939999"
       inkscape:export-ydpi="63.939999"
       inkscape:export-filename="/home/salim/ownCloud/code/thesources-site/img/the_sources_logo.png" /><path
       inkscape:connector-curvature="0"
       id="path78"
       style="fill:#12913c;fill-opacity:1;fill-rule:evenodd;stroke:none"
       d="m 213.6351,64.918916 1.65214,-0.507527 -0.18544,-0.604257 -1.65278,0.507597 c -0.16605,0.05124 -0.26039,0.228663 -0.20934,0.394714 l 0,2.57e-4 c 0.051,0.166052 0.22872,0.260454 0.39542,0.209216"
       inkscape:export-xdpi="63.939999"
       inkscape:export-ydpi="63.939999"
       inkscape:export-filename="/home/salim/ownCloud/code/thesources-site/img/the_sources_logo.png" /><path
       inkscape:connector-curvature="0"
       id="path80"
       style="fill:#12913c;fill-opacity:1;fill-rule:evenodd;stroke:none"
       d="m 213.38893,61.686564 1.72127,0.165798 -0.0607,0.628999 -1.72062,-0.165603 c -0.17316,-0.01668 -0.30109,-0.171869 -0.28429,-0.34477 l 0,-2.57e-4 c 0.0168,-0.173097 0.17122,-0.300839 0.34438,-0.284167"
       inkscape:export-xdpi="63.939999"
       inkscape:export-ydpi="63.939999"
       inkscape:export-filename="/home/salim/ownCloud/code/thesources-site/img/the_sources_logo.png" /><path
       inkscape:connector-curvature="0"
       id="path82"
       style="fill:#12913c;fill-opacity:1;fill-rule:evenodd;stroke:none"
       d="m 213.6351,60.882402 1.65214,0.507336 -0.18544,0.604249 -1.65278,-0.507589 c -0.16605,-0.05098 -0.26039,-0.228663 -0.20934,-0.394714 l 0,-2.61e-4 c 0.051,-0.166056 0.22872,-0.260259 0.39542,-0.209021"
       inkscape:export-xdpi="63.939999"
       inkscape:export-ydpi="63.939999"
       inkscape:export-filename="/home/salim/ownCloud/code/thesources-site/img/the_sources_logo.png" /><path
       inkscape:connector-curvature="0"
       id="path84"
       style="fill:#137333;fill-opacity:1;fill-rule:evenodd;stroke:none"
       d="m 211.61985,23.396511 c 0.75726,0 1.37042,-0.435098 1.37042,-0.971424 0,-0.536585 -0.61316,-0.971702 -1.37042,-0.971702 -0.75661,0 -1.37042,0.435117 -1.37042,0.971702 0,0.536326 0.61381,0.971424 1.37042,0.971424"
       inkscape:export-xdpi="63.939999"
       inkscape:export-ydpi="63.939999"
       inkscape:export-filename="/home/salim/ownCloud/code/thesources-site/img/the_sources_logo.png" /><path
       inkscape:connector-curvature="0"
       id="path86"
       style="fill:#137333;fill-opacity:1;fill-rule:evenodd;stroke:none"
       d="m 214.29609,22.426347 -0.63708,0.170847 c -0.21193,0.05705 -0.4245,0.113847 -0.63708,0.170641 0.0627,-0.10422 0.0866,-0.223882 0.0866,-0.337702 0.011,-0.110293 -0.0227,-0.205189 -0.0866,-0.345268 l 0.63708,0.170867 0.63708,0.170615"
       inkscape:export-xdpi="63.939999"
       inkscape:export-ydpi="63.939999"
       inkscape:export-filename="/home/salim/ownCloud/code/thesources-site/img/the_sources_logo.png" /><path
       inkscape:connector-curvature="0"
       id="path88"
       style="fill:#137333;fill-opacity:1;fill-rule:evenodd;stroke:none"
       d="m 209.70798,22.428621 c -1.24702,1.05854 -2.80094,1.755899 -4.57777,2.193259 -0.48136,-1.424956 -0.43161,-2.89087 0,-4.386537 1.72837,0.366725 3.23319,1.135254 4.57777,2.193278"
       inkscape:export-xdpi="63.939999"
       inkscape:export-ydpi="63.939999"
       inkscape:export-filename="/home/salim/ownCloud/code/thesources-site/img/the_sources_logo.png" /><path
       inkscape:connector-curvature="0"
       id="path90"
       style="fill:#137333;fill-opacity:1;fill-rule:evenodd;stroke:none"
       d="m 209.59103,28.098594 c 0.61705,0.522453 1.12554,0.420754 1.57848,0 -0.7172,-3.59153 -0.72172,-7.322377 0,-11.18573 -0.52659,-0.607757 -1.05254,-0.755406 -1.57848,0 -2.56963,3.478963 -2.67494,7.200195 0,11.18573"
       inkscape:export-xdpi="63.939999"
       inkscape:export-ydpi="63.939999"
       inkscape:export-filename="/home/salim/ownCloud/code/thesources-site/img/the_sources_logo.png" /><path
       inkscape:connector-curvature="0"
       id="path92"
       style="fill:#137333;fill-opacity:1;fill-rule:evenodd;stroke:none"
       d="m 204.9409,24.215017 1.65277,-0.507528 -0.18543,-0.604253 -1.65278,0.507593 c -0.16605,0.05098 -0.26039,0.228404 -0.20934,0.394715 l 0,0 c 0.051,0.166312 0.22872,0.260517 0.39478,0.209473"
       inkscape:export-xdpi="63.939999"
       inkscape:export-ydpi="63.939999"
       inkscape:export-filename="/home/salim/ownCloud/code/thesources-site/img/the_sources_logo.png" /><path
       inkscape:connector-curvature="0"
       id="path94"
       style="fill:#137333;fill-opacity:1;fill-rule:evenodd;stroke:none"
       d="m 204.69537,23.647141 1.72062,-0.165795 -0.0601,-0.628934 -1.72062,0.165536 c -0.17316,0.01667 -0.30109,0.17161 -0.28494,0.344771 l 0,0 c 0.0168,0.17316 0.17187,0.301092 0.34503,0.284422"
       inkscape:export-xdpi="63.939999"
       inkscape:export-ydpi="63.939999"
       inkscape:export-filename="/home/salim/ownCloud/code/thesources-site/img/the_sources_logo.png" /><path
       inkscape:connector-curvature="0"
       id="path96"
       style="fill:#137333;fill-opacity:1;fill-rule:evenodd;stroke:none"
       d="m 204.66888,22.796845 1.72837,-0.04187 -0.0155,-0.631752 -1.72773,0.04165 c -0.17445,0.0043 -0.31272,0.14992 -0.30884,0.323565 l 0,2.52e-4 c 0.005,0.173632 0.1499,0.312483 0.32371,0.308154"
       inkscape:export-xdpi="63.939999"
       inkscape:export-ydpi="63.939999"
       inkscape:export-filename="/home/salim/ownCloud/code/thesources-site/img/the_sources_logo.png" /><path
       inkscape:connector-curvature="0"
       id="path98"
       style="fill:#137333;fill-opacity:1;fill-rule:evenodd;stroke:none"
       d="m 204.9409,24.451562 1.65277,-0.507593 -0.18543,-0.604188 -1.65278,0.507529 c -0.16605,0.05098 -0.26039,0.228403 -0.20934,0.394521 l 0,1.94e-4 c 0.051,0.166118 0.22872,0.260257 0.39478,0.209537"
       inkscape:export-xdpi="63.939999"
       inkscape:export-ydpi="63.939999"
       inkscape:export-filename="/home/salim/ownCloud/code/thesources-site/img/the_sources_logo.png" /><path
       inkscape:connector-curvature="0"
       id="path100"
       style="fill:#137333;fill-opacity:1;fill-rule:evenodd;stroke:none"
       d="m 204.69537,21.218907 1.72062,0.165569 -0.0601,0.629212 -1.72062,-0.165568 c -0.17316,-0.01666 -0.30109,-0.171875 -0.28494,-0.344764 l 0,-2.52e-4 c 0.0168,-0.172889 0.17187,-0.300854 0.34503,-0.284197"
       inkscape:export-xdpi="63.939999"
       inkscape:export-ydpi="63.939999"
       inkscape:export-filename="/home/salim/ownCloud/code/thesources-site/img/the_sources_logo.png" /><path
       inkscape:connector-curvature="0"
       id="path102"
       style="fill:#137333;fill-opacity:1;fill-rule:evenodd;stroke:none"
       d="m 204.9409,20.414538 1.65277,0.50756 -0.18543,0.604227 -1.65278,-0.50756 c -0.16605,-0.05099 -0.26039,-0.228669 -0.20934,-0.394742 l 0,0 c 0.051,-0.166324 0.22872,-0.260464 0.39478,-0.209485"
       inkscape:export-xdpi="63.939999"
       inkscape:export-ydpi="63.939999"
       inkscape:export-filename="/home/salim/ownCloud/code/thesources-site/img/the_sources_logo.png" /><path
       inkscape:connector-curvature="0"
       id="path104"
       style="fill:#137333;fill-opacity:1;fill-rule:evenodd;stroke:none"
       d="m 209.66534,78.628059 c 0.75725,0 1.37042,-0.435098 1.37042,-0.971441 0,-0.536866 -0.61317,-0.971703 -1.37042,-0.971703 -0.75661,0 -1.37043,0.434837 -1.37043,0.971703 0,0.536343 0.61382,0.971441 1.37043,0.971441"
       inkscape:export-xdpi="63.939999"
       inkscape:export-ydpi="63.939999"
       inkscape:export-filename="/home/salim/ownCloud/code/thesources-site/img/the_sources_logo.png" /><path
       inkscape:connector-curvature="0"
       id="path106"
       style="fill:#137333;fill-opacity:1;fill-rule:evenodd;stroke:none"
       d="m 212.34221,77.657846 -0.63772,0.170897 c -0.21192,0.05705 -0.4245,0.113846 -0.63707,0.170578 0.0627,-0.104481 0.0866,-0.22382 0.0866,-0.337666 0.011,-0.11029 -0.0226,-0.205465 -0.0866,-0.345542 l 0.63707,0.170898 0.63772,0.170835"
       inkscape:export-xdpi="63.939999"
       inkscape:export-ydpi="63.939999"
       inkscape:export-filename="/home/salim/ownCloud/code/thesources-site/img/the_sources_logo.png" /><path
       inkscape:connector-curvature="0"
       id="path108"
       style="fill:#137333;fill-opacity:1;fill-rule:evenodd;stroke:none"
       d="m 207.75346,77.660107 c -1.24636,1.058537 -2.80093,1.755899 -4.57777,2.19332 -0.48136,-1.425015 -0.43161,-2.891133 0,-4.386578 1.72838,0.366736 3.23319,1.135231 4.57777,2.193258"
       inkscape:export-xdpi="63.939999"
       inkscape:export-ydpi="63.939999"
       inkscape:export-filename="/home/salim/ownCloud/code/thesources-site/img/the_sources_logo.png" /><path
       inkscape:connector-curvature="0"
       id="path110"
       style="fill:#137333;fill-opacity:1;fill-rule:evenodd;stroke:none"
       d="m 207.63651,83.33008 c 0.61705,0.522709 1.12555,0.420626 1.57848,0 -0.7172,-3.591789 -0.72108,-7.322622 0,-11.185716 -0.52659,-0.608 -1.05253,-0.755384 -1.57848,0 -2.56962,3.478973 -2.67429,7.200246 0,11.185716"
       inkscape:export-xdpi="63.939999"
       inkscape:export-ydpi="63.939999"
       inkscape:export-filename="/home/salim/ownCloud/code/thesources-site/img/the_sources_logo.png" /><path
       inkscape:connector-curvature="0"
       id="path112"
       style="fill:#000000;fill-opacity:1;fill-rule:evenodd;stroke:none"
       d="m 202.98638,79.446564 1.65278,-0.507593 -0.18544,-0.604186 -1.65278,0.507531 c -0.16605,0.05098 -0.26038,0.228401 -0.20934,0.394519 l 0,2.61e-4 c 0.051,0.166051 0.22872,0.260188 0.39478,0.209468"
       inkscape:export-xdpi="63.939999"
       inkscape:export-ydpi="63.939999"
       inkscape:export-filename="/home/salim/ownCloud/code/thesources-site/img/the_sources_logo.png" /><path
       inkscape:connector-curvature="0"
       id="path114"
       style="fill:#000000;fill-opacity:1;fill-rule:evenodd;stroke:none"
       d="m 202.74085,78.878434 1.72127,-0.165603 -0.0607,-0.628936 -1.72063,0.165603 c -0.17316,0.0166 -0.30109,0.171607 -0.28429,0.344512 l 0,1.91e-4 c 0.0168,0.173163 0.17122,0.300901 0.34438,0.284233"
       inkscape:export-xdpi="63.939999"
       inkscape:export-ydpi="63.939999"
       inkscape:export-filename="/home/salim/ownCloud/code/thesources-site/img/the_sources_logo.png" /><path
       inkscape:connector-curvature="0"
       id="path116"
       style="fill:#000000;fill-opacity:1;fill-rule:evenodd;stroke:none"
       d="m 202.71436,78.028395 1.72837,-0.04193 -0.0155,-0.631713 -1.72773,0.04161 c -0.17445,0.0043 -0.31273,0.149964 -0.3082,0.32358 l 0,0 c 0.004,0.173934 0.14925,0.31246 0.32306,0.308456"
       inkscape:export-xdpi="63.939999"
       inkscape:export-ydpi="63.939999"
       inkscape:export-filename="/home/salim/ownCloud/code/thesources-site/img/the_sources_logo.png" /><path
       inkscape:connector-curvature="0"
       id="path118"
       style="fill:#000000;fill-opacity:1;fill-rule:evenodd;stroke:none"
       d="m 202.98638,79.682791 1.65278,-0.507269 -0.18544,-0.604257 -1.65278,0.507335 c -0.16605,0.05124 -0.26038,0.228663 -0.20934,0.394714 l 0,2.62e-4 c 0.051,0.166055 0.22872,0.260192 0.39478,0.209215"
       inkscape:export-xdpi="63.939999"
       inkscape:export-ydpi="63.939999"
       inkscape:export-filename="/home/salim/ownCloud/code/thesources-site/img/the_sources_logo.png" /><path
       inkscape:connector-curvature="0"
       id="path120"
       style="fill:#000000;fill-opacity:1;fill-rule:evenodd;stroke:none"
       d="m 202.74085,76.450435 1.72127,0.165537 -0.0607,0.62926 -1.72063,-0.165603 c -0.17316,-0.01668 -0.30109,-0.171864 -0.28429,-0.34477 l 0,-2.57e-4 c 0.0168,-0.172906 0.17122,-0.300838 0.34438,-0.284167"
       inkscape:export-xdpi="63.939999"
       inkscape:export-ydpi="63.939999"
       inkscape:export-filename="/home/salim/ownCloud/code/thesources-site/img/the_sources_logo.png" /><path
       inkscape:connector-curvature="0"
       id="path122"
       style="fill:#000000;fill-opacity:1;fill-rule:evenodd;stroke:none"
       d="m 202.98638,75.646078 1.65278,0.507531 -0.18544,0.604249 -1.65278,-0.507589 c -0.16605,-0.05098 -0.26038,-0.228663 -0.20934,-0.394714 l 0,-2.61e-4 c 0.051,-0.166056 0.22872,-0.260259 0.39478,-0.209216"
       inkscape:export-xdpi="63.939999"
       inkscape:export-ydpi="63.939999"
       inkscape:export-filename="/home/salim/ownCloud/code/thesources-site/img/the_sources_logo.png" /></g></svg>