<?xml version="1.0" encoding="UTF-8" standalone="no"?>
<!-- Created with Inkscape (http://www.inkscape.org/) -->

<svg
   xmlns:dc="http://purl.org/dc/elements/1.1/"
   xmlns:cc="http://creativecommons.org/ns#"
   xmlns:rdf="http://www.w3.org/1999/02/22-rdf-syntax-ns#"
   xmlns:svg="http://www.w3.org/2000/svg"
   xmlns="http://www.w3.org/2000/svg"
   xmlns:sodipodi="http://sodipodi.sourceforge.net/DTD/sodipodi-0.dtd"
   xmlns:inkscape="http://www.inkscape.org/namespaces/inkscape"
   width="210mm"
   height="297mm"
   viewBox="0 0 210 297"
   version="1.1"
   id="svg5687"
   inkscape:version="0.92.1 r"
   sodipodi:docname="source_logo.svg">
  <defs
     id="defs5681" />
  <sodipodi:namedview
     id="base"
     pagecolor="#ffffff"
     bordercolor="#666666"
     borderopacity="1.0"
     inkscape:pageopacity="0.0"
     inkscape:pageshadow="2"
     inkscape:zoom="0.35"
     inkscape:cx="-144.28571"
     inkscape:cy="560"
     inkscape:document-units="mm"
     inkscape:current-layer="flowRoot4905-5-4"
     showgrid="false"
     inkscape:window-width="1276"
     inkscape:window-height="774"
     inkscape:window-x="0"
     inkscape:window-y="24"
     inkscape:window-maximized="0" />
  <metadata
     id="metadata5684">
    <rdf:RDF>
      <cc:Work
         rdf:about="">
        <dc:format>image/svg+xml</dc:format>
        <dc:type
           rdf:resource="http://purl.org/dc/dcmitype/StillImage" />
        <dc:title></dc:title>
      </cc:Work>
    </rdf:RDF>
  </metadata>
  <g
     inkscape:label="Layer 1"
     inkscape:groupmode="layer"
     id="layer1">
    <g
       aria-label="source"
       transform="matrix(0.34755898,0,0,0.34755898,56.608716,81.163023)"
       style="font-style:normal;font-weight:normal;font-size:40px;line-height:1.25;font-family:sans-serif;letter-spacing:0px;word-spacing:0px;fill:#4d4d4d;fill-opacity:1;stroke:none"
       id="flowRoot4905-5-4">
      <path
         d="m 103.68818,118.4345 v -3.328 q 0,-6.74134 -11.008002,-6.74134 -4.693334,0 -7.68,1.536 -2.986667,1.536 -2.986667,4.864 v 1.87734 q 0,4.608 1.194667,6.05866 1.194666,1.36534 5.12,2.304 l 7.424,1.87734 q 10.581332,2.73066 12.544002,5.29066 2.38933,3.15734 2.38933,8.36267 v 3.072 q 0,6.656 -5.20533,9.64267 -5.12,2.90133 -13.312002,2.90133 -13.312001,0 -16.896001,-6.74133 -1.450666,-2.816 -1.450666,-6.82667 v -2.73066 q 0,-1.10934 0.768,-1.45067 0.768,-0.42667 2.645333,-0.42667 3.328,0 3.328,2.13334 v 3.84 q 0,3.41333 2.986667,4.864 2.986667,1.36533 8.704,1.36533 11.690669,0 11.690669,-5.97333 v -4.52267 q 0,-2.64533 -2.048,-4.096 -1.962669,-1.45067 -6.826669,-2.73067 l -7.509333,-1.87733 q -7.594667,-1.87734 -9.984001,-4.43734 -2.304,-2.64533 -2.304,-10.15466 v -1.024 q 0.170667,-6.82667 4.864001,-9.89867 4.693333,-3.072 12.373333,-3.072 17.919999,0 17.919999,13.312 v 2.98667 q 0,1.792 -3.41333,1.792 -3.328,0 -3.328,-2.048 z"
         style="font-style:normal;font-variant:normal;font-weight:normal;font-stretch:normal;font-size:85.33333588px;font-family:Offside;-inkscape-font-specification:Offside;fill:#4d4d4d"
         id="path6313" />
      <path
         d="m 158.37084,143.5225 v -28.50134 q 0,-6.656 -11.69066,-6.656 -11.60534,0 -11.60534,6.656 v 28.50134 q 0,6.656 11.60534,6.656 11.69066,0 11.69066,-6.656 z m 6.82667,-27.648 v 26.79467 q 0,7.08266 -5.03467,10.32533 -5.03466,3.15733 -13.39733,3.15733 -8.36267,0 -13.48267,-3.15733 -5.03466,-3.24267 -5.03466,-10.32533 V 115.8745 q 0,-7.08267 5.03466,-10.24 5.03467,-3.24267 13.39734,-3.24267 8.36266,0 13.39733,3.24267 5.12,3.15733 5.12,10.24 z"
         style="font-style:normal;font-variant:normal;font-weight:normal;font-stretch:normal;font-size:85.33333588px;font-family:Offside;-inkscape-font-specification:Offside;fill:#4d4d4d"
         id="path6315" />
      <path
         d="m 220.05085,105.20783 v 37.46134 q 0,7.08266 -5.12001,10.32533 -5.03466,3.15733 -13.39733,3.15733 -8.36267,0 -13.39733,-3.15733 -5.03467,-3.24267 -5.03467,-10.32533 v -37.46134 q 0,-1.96267 3.41333,-1.96267 3.41334,0 3.41334,1.96267 v 38.31467 q 0,6.656 11.60533,6.656 11.69067,0 11.69067,-6.656 v -38.31467 q 0,-1.96267 3.41333,-1.96267 3.41334,0 3.41334,1.96267 z"
         style="font-style:normal;font-variant:normal;font-weight:normal;font-stretch:normal;font-size:85.33333588px;font-family:Offside;-inkscape-font-specification:Offside;fill:#4d4d4d"
         id="path6317" />
      <path
         d="m 261.46685,119.28783 v -4.26667 q 0,-6.656 -7.936,-6.656 -7.936,0 -7.936,6.656 v 39.16801 q 0,1.96266 -3.41333,1.96266 -3.41334,0 -3.41334,-1.96266 V 115.8745 q 0,-7.08267 4.01067,-10.24 4.096,-3.24267 10.752,-3.24267 14.76267,0 14.76267,13.312 v 3.584 q 0,1.96267 -3.41334,1.96267 -3.41333,0 -3.41333,-1.96267 z"
         style="font-style:normal;font-variant:normal;font-weight:normal;font-stretch:normal;font-size:85.33333588px;font-family:Offside;-inkscape-font-specification:Offside;fill:#4d4d4d"
         id="path6319" />
      <path
         d="m 285.40819,115.02116 v 28.50134 q 0,6.656 10.92266,6.656 10.92267,0 10.92267,-6.656 v -3.584 q 0,-1.96267 3.41334,-1.96267 3.41333,0 3.41333,1.96267 v 2.73067 q 0,7.08266 -4.864,10.32533 -4.77867,3.15733 -12.88534,3.15733 -8.02133,0 -12.88533,-3.15733 -4.864,-3.24267 -4.864,-10.32533 V 115.8745 q 0,-7.08267 4.864,-10.24 4.864,-3.24267 12.88533,-3.24267 8.10667,0 12.88534,3.24267 4.864,3.15733 4.864,10.24 v 2.73066 q 0,1.96267 -3.41333,1.96267 -3.41334,0 -3.41334,-1.96267 v -3.584 q 0,-6.656 -10.92267,-6.656 -10.92266,0 -10.92266,6.656 z"
         style="font-style:normal;font-variant:normal;font-weight:normal;font-stretch:normal;font-size:85.33333588px;font-family:Offside;-inkscape-font-specification:Offside;fill:#4d4d4d"
         id="path6321" />
      <path
         d="m 366.79085,115.70383 v 2.56 q 0,7.25333 -2.98667,9.984 -2.98666,2.73067 -10.92266,3.49867 l -16.64,1.62133 v 10.15467 q 0,6.656 11.09333,6.656 12.62933,0 12.62933,-5.80267 v -3.24266 q 0,-1.96267 3.41334,-1.96267 3.41333,0 3.41333,1.96267 v 2.38933 q 0,12.62933 -18.77333,12.62933 -8.27734,0 -13.48267,-3.24266 -5.12,-3.24267 -5.12,-10.24 V 115.8745 q 0,-7.08267 5.46133,-10.24 5.46134,-3.24267 14.25067,-3.24267 8.78933,0 13.22667,3.072 4.43733,3.072 4.43733,10.24 z m -30.54933,-0.68267 v 12.37334 l 16.04266,-1.62134 q 4.864,-0.512 6.22934,-2.048 1.45066,-1.536 1.45066,-5.46133 v -3.24267 q 0,-6.656 -11.86133,-6.656 -11.86133,0 -11.86133,6.656 z"
         style="font-style:normal;font-variant:normal;font-weight:normal;font-stretch:normal;font-size:85.33333588px;font-family:Offside;-inkscape-font-specification:Offside;fill:#4d4d4d"
         id="path6323" />
    </g>
    <path
       inkscape:connector-curvature="0"
       style="clip-rule:evenodd;fill:#18c953;fill-rule:evenodd;stroke-width:1.92577469;image-rendering:optimizeQuality;shape-rendering:geometricPrecision;text-rendering:geometricPrecision"
       d="m 56.336379,103.33742 c -0.972364,-0.0409 -2.031184,0.34937 -3.191195,1.30475 -3.755925,5.60812 -6.034461,11.06878 -6.907815,16.39325 -1.491166,-0.72385 -3.045586,-1.37005 -4.668718,-1.93941 l 0.0037,-0.007 -0.105761,-0.0341 c -1.505704,-0.52406 -3.067425,-0.98486 -4.675746,-1.38929 l -1.428115,-0.42307 c -0.614128,-0.2047 -1.226955,0.13716 -1.431665,0.75108 -0.204703,0.61412 0.137155,1.29745 0.75108,1.50215 l 1.234182,0.37053 c -0.113266,0.47423 -0.210162,0.95148 -0.292732,1.42811 l -0.698189,-0.0744 c -0.68236,0 -1.225932,0.47902 -1.294097,1.09314 -0.06824,0.61413 0.407367,1.22948 1.089591,1.29765 l 0.60321,0.0546 c -0.02046,0.25657 -0.01368,0.51518 -0.0273,0.77222 l -0.507675,-0.0136 c -0.614128,0 -1.160153,0.47765 -1.160153,1.16015 0,0.61413 0.477651,1.16008 1.160153,1.16008 l 0.522007,0.0205 c 0.02046,0.38212 0.03413,0.76281 0.06823,1.14602 l -0.659162,0.0614 c -0.68236,0.0682 -1.157829,0.61549 -1.089591,1.29772 0.06824,0.61412 0.612076,1.09082 1.294097,1.02259 l 0.772232,-0.0744 c 0.09416,0.54179 0.190377,1.08489 0.313884,1.62914 l -0.877993,0.27158 c -0.614128,0.20471 -0.955788,0.81623 -0.751079,1.4986 0.204709,0.61412 0.817469,0.95578 1.431597,0.75107 l 6.20969,-1.91116 -0.0273,-0.0744 c 1.443742,-0.53566 2.845923,-1.14855 4.206762,-1.84067 0.845103,5.40484 3.167108,10.66346 6.93954,15.78328 1.978916,2.79761 3.957012,2.2518 5.867621,0 -1.12603,-6.09219 -1.745136,-12.08018 -1.91825,-17.98717 a 5.1177079,3.6165135 0 0 0 3.624975,1.06489 5.1177079,3.6165135 0 0 0 4.788535,-2.35196 l 2.217945,-0.64893 2.38731,-0.61344 -2.38731,-0.61344 c -0.716273,-0.19516 -1.492393,-0.39782 -2.214396,-0.65234 a 5.1177079,3.6165135 0 0 0 -4.792084,-2.35196 5.1177079,3.6165135 0 0 0 -3.656706,1.09314 c 0.108496,-6.3014 0.738658,-12.51008 1.949981,-18.62895 -0.81883,-0.78471 -1.70399,-1.26202 -2.676353,-1.30467 z"
       id="ellipse4240-3" />
  </g>
</svg>
